<svg xmlns="http://www.w3.org/2000/svg" viewBox="0 0 64 64">
  <rect width="64" height="64" rx="16" fill="#f8f7f1"/>
  <path
    d="M16 18c6-6 23-7 31 0 7 6 7 21 0 28-7 8-23 8-31 0-7-7-7-21 0-28Z"
    fill="#fffdf7"
    stroke="#151915"
    stroke-width="3.5"
    stroke-linecap="round"
    stroke-linejoin="round"
  />
  <path
    d="M17 28c3 7 5 13 8 17 3-7 5-13 8-19 2 7 5 13 8 18 3-6 5-12 7-19"
    fill="none"
    stroke="#151915"
    stroke-width="5"
    stroke-linecap="round"
    stroke-linejoin="round"
  />
  <path
    d="M20 18c-3 2-5 5-6 9M49 36c-1 4-4 8-8 10M30 13c5-1 11 0 15 3"
    fill="none"
    stroke="#e4a11b"
    stroke-width="3"
    stroke-linecap="round"
  />
  <circle cx="46" cy="21" r="3" fill="#7c9b61"/>
</svg>
